<mxfile host="app.diagrams.net" modified="2023-10-19T09:00:12.524Z" agent="Mozilla/5.0 (Windows NT 10.0; Win64; x64) AppleWebKit/537.36 (KHTML, like Gecko) Chrome/118.0.0.0 Safari/537.36" etag="viO8G_ltI0yyQ0VD0DQo" version="22.0.4" type="device">
  <diagram name="Page-1" id="atyNLuNKh7x29IN8w6cE">
    <mxGraphModel dx="2730" dy="731" grid="1" gridSize="10" guides="1" tooltips="1" connect="1" arrows="1" fold="1" page="1" pageScale="1" pageWidth="827" pageHeight="1169" math="0" shadow="0">
      <root>
        <mxCell id="0" />
        <mxCell id="1" parent="0" />
        <mxCell id="njXrvPDKqDDFjosRoKol-1" value="" style="rounded=0;whiteSpace=wrap;html=1;fillColor=#fa6800;strokeColor=#C73500;fontColor=#000000;" parent="1" vertex="1">
          <mxGeometry x="60" y="120" width="70" height="260" as="geometry" />
        </mxCell>
        <mxCell id="njXrvPDKqDDFjosRoKol-7" style="edgeStyle=orthogonalEdgeStyle;rounded=0;orthogonalLoop=1;jettySize=auto;html=1;exitX=1;exitY=0.5;exitDx=0;exitDy=0;" parent="1" source="njXrvPDKqDDFjosRoKol-2" target="njXrvPDKqDDFjosRoKol-3" edge="1">
          <mxGeometry relative="1" as="geometry">
            <Array as="points">
              <mxPoint x="125" y="250" />
            </Array>
          </mxGeometry>
        </mxCell>
        <mxCell id="njXrvPDKqDDFjosRoKol-8" style="edgeStyle=orthogonalEdgeStyle;rounded=0;orthogonalLoop=1;jettySize=auto;html=1;exitX=1;exitY=0;exitDx=0;exitDy=0;entryX=0;entryY=0.25;entryDx=0;entryDy=0;strokeWidth=5;" parent="1" source="njXrvPDKqDDFjosRoKol-2" target="njXrvPDKqDDFjosRoKol-3" edge="1">
          <mxGeometry relative="1" as="geometry">
            <Array as="points">
              <mxPoint x="125" y="185" />
            </Array>
          </mxGeometry>
        </mxCell>
        <mxCell id="njXrvPDKqDDFjosRoKol-2" value="&lt;b style=&quot;font-size: 38px;&quot;&gt;&lt;font color=&quot;#ffffff&quot;&gt;M&lt;br&gt;A&lt;br&gt;C&lt;/font&gt;&lt;/b&gt;" style="text;strokeColor=none;align=center;fillColor=none;html=1;verticalAlign=middle;whiteSpace=wrap;rounded=0;" parent="1" vertex="1">
          <mxGeometry x="65" y="200" width="60" height="110" as="geometry" />
        </mxCell>
        <mxCell id="njXrvPDKqDDFjosRoKol-3" value="" style="rounded=0;whiteSpace=wrap;html=1;fillColor=#fa6800;strokeColor=#C73500;fontColor=#000000;" parent="1" vertex="1">
          <mxGeometry x="240" y="120" width="460" height="260" as="geometry" />
        </mxCell>
        <mxCell id="njXrvPDKqDDFjosRoKol-9" value="&lt;b&gt;&lt;font style=&quot;font-size: 14px;&quot;&gt;TX_data&lt;/font&gt;&lt;/b&gt;" style="text;strokeColor=none;align=center;fillColor=none;html=1;verticalAlign=middle;whiteSpace=wrap;rounded=0;" parent="1" vertex="1">
          <mxGeometry x="150" y="150" width="60" height="30" as="geometry" />
        </mxCell>
        <mxCell id="njXrvPDKqDDFjosRoKol-10" value="&lt;b&gt;&lt;font style=&quot;font-size: 14px;&quot;&gt;TX_data_K&lt;/font&gt;&lt;/b&gt;" style="text;strokeColor=none;align=center;fillColor=none;html=1;verticalAlign=middle;whiteSpace=wrap;rounded=0;" parent="1" vertex="1">
          <mxGeometry x="150" y="220" width="60" height="30" as="geometry" />
        </mxCell>
        <mxCell id="njXrvPDKqDDFjosRoKol-12" value="" style="edgeStyle=none;orthogonalLoop=1;jettySize=auto;html=1;rounded=0;" parent="1" edge="1">
          <mxGeometry width="80" relative="1" as="geometry">
            <mxPoint x="470" y="65" as="sourcePoint" />
            <mxPoint x="472" y="120" as="targetPoint" />
            <Array as="points" />
          </mxGeometry>
        </mxCell>
        <mxCell id="njXrvPDKqDDFjosRoKol-13" value="&lt;b&gt;&lt;font style=&quot;font-size: 14px;&quot;&gt;Clk&lt;/font&gt;&lt;/b&gt;" style="text;strokeColor=none;align=center;fillColor=none;html=1;verticalAlign=middle;whiteSpace=wrap;rounded=0;" parent="1" vertex="1">
          <mxGeometry x="440" y="35" width="60" height="30" as="geometry" />
        </mxCell>
        <mxCell id="njXrvPDKqDDFjosRoKol-14" value="" style="edgeStyle=none;orthogonalLoop=1;jettySize=auto;html=1;rounded=0;" parent="1" edge="1">
          <mxGeometry width="80" relative="1" as="geometry">
            <mxPoint x="700" y="254.5" as="sourcePoint" />
            <mxPoint x="760" y="255" as="targetPoint" />
            <Array as="points" />
          </mxGeometry>
        </mxCell>
        <mxCell id="njXrvPDKqDDFjosRoKol-15" value="&lt;b&gt;&lt;font style=&quot;font-size: 14px;&quot;&gt;TX+,TX-&lt;/font&gt;&lt;/b&gt;" style="text;strokeColor=none;align=center;fillColor=none;html=1;verticalAlign=middle;whiteSpace=wrap;rounded=0;" parent="1" vertex="1">
          <mxGeometry x="720" y="220" width="60" height="30" as="geometry" />
        </mxCell>
        <mxCell id="njXrvPDKqDDFjosRoKol-16" value="&lt;b&gt;&lt;font color=&quot;#ffffff&quot; style=&quot;font-size: 31px;&quot;&gt;TX_Block&lt;/font&gt;&lt;/b&gt;" style="text;strokeColor=none;align=center;fillColor=none;html=1;verticalAlign=middle;whiteSpace=wrap;rounded=0;" parent="1" vertex="1">
          <mxGeometry x="440" y="220" width="60" height="30" as="geometry" />
        </mxCell>
        <mxCell id="njXrvPDKqDDFjosRoKol-17" value="" style="rounded=0;whiteSpace=wrap;html=1;fillColor=#fa6800;strokeColor=#C73500;fontColor=#000000;" parent="1" vertex="1">
          <mxGeometry x="80" y="455" width="710" height="475" as="geometry" />
        </mxCell>
        <mxCell id="njXrvPDKqDDFjosRoKol-18" value="&lt;b&gt;&lt;font color=&quot;#ffffff&quot; style=&quot;font-size: 31px;&quot;&gt;TX_Block&lt;/font&gt;&lt;/b&gt;" style="text;strokeColor=none;align=center;fillColor=none;html=1;verticalAlign=middle;whiteSpace=wrap;rounded=0;" parent="1" vertex="1">
          <mxGeometry x="130" y="470" width="60" height="30" as="geometry" />
        </mxCell>
        <mxCell id="njXrvPDKqDDFjosRoKol-63" style="edgeStyle=none;rounded=0;orthogonalLoop=1;jettySize=auto;html=1;exitX=1;exitY=0.5;exitDx=0;exitDy=0;endArrow=none;endFill=0;" parent="1" source="njXrvPDKqDDFjosRoKol-19" edge="1">
          <mxGeometry relative="1" as="geometry">
            <mxPoint x="569.9999999999995" y="604.5" as="targetPoint" />
          </mxGeometry>
        </mxCell>
        <mxCell id="ny57wzhgL6la1Yudt9Ik-5" style="edgeStyle=orthogonalEdgeStyle;rounded=0;orthogonalLoop=1;jettySize=auto;html=1;exitX=1;exitY=1;exitDx=0;exitDy=0;entryX=0;entryY=0.25;entryDx=0;entryDy=0;strokeWidth=3;dashed=1;" parent="1" source="njXrvPDKqDDFjosRoKol-19" target="njXrvPDKqDDFjosRoKol-26" edge="1">
          <mxGeometry relative="1" as="geometry" />
        </mxCell>
        <mxCell id="njXrvPDKqDDFjosRoKol-19" value="" style="rounded=0;whiteSpace=wrap;html=1;" parent="1" vertex="1">
          <mxGeometry x="95" y="520" width="220" height="168.75" as="geometry" />
        </mxCell>
        <mxCell id="njXrvPDKqDDFjosRoKol-20" value="&lt;b&gt;&lt;font style=&quot;font-size: 21px;&quot;&gt;FSM&lt;/font&gt;&lt;/b&gt;" style="text;strokeColor=none;align=center;fillColor=none;html=1;verticalAlign=middle;whiteSpace=wrap;rounded=0;" parent="1" vertex="1">
          <mxGeometry x="175" y="589.38" width="60" height="30" as="geometry" />
        </mxCell>
        <mxCell id="njXrvPDKqDDFjosRoKol-36" style="edgeStyle=orthogonalEdgeStyle;rounded=0;orthogonalLoop=1;jettySize=auto;html=1;entryX=0.5;entryY=1;entryDx=0;entryDy=0;strokeWidth=6;" parent="1" source="njXrvPDKqDDFjosRoKol-21" target="njXrvPDKqDDFjosRoKol-24" edge="1">
          <mxGeometry relative="1" as="geometry" />
        </mxCell>
        <mxCell id="njXrvPDKqDDFjosRoKol-21" value="" style="rounded=0;whiteSpace=wrap;html=1;" parent="1" vertex="1">
          <mxGeometry x="610" y="720" width="130" height="92.5" as="geometry" />
        </mxCell>
        <mxCell id="njXrvPDKqDDFjosRoKol-22" value="&lt;b&gt;&lt;font style=&quot;font-size: 21px;&quot;&gt;FSM_RD&lt;/font&gt;&lt;/b&gt;" style="text;strokeColor=none;align=center;fillColor=none;html=1;verticalAlign=middle;whiteSpace=wrap;rounded=0;" parent="1" vertex="1">
          <mxGeometry x="645" y="751.25" width="60" height="30" as="geometry" />
        </mxCell>
        <mxCell id="njXrvPDKqDDFjosRoKol-43" style="edgeStyle=orthogonalEdgeStyle;rounded=0;orthogonalLoop=1;jettySize=auto;html=1;" parent="1" source="njXrvPDKqDDFjosRoKol-24" edge="1">
          <mxGeometry relative="1" as="geometry">
            <mxPoint x="830" y="596.25" as="targetPoint" />
          </mxGeometry>
        </mxCell>
        <mxCell id="njXrvPDKqDDFjosRoKol-45" style="edgeStyle=orthogonalEdgeStyle;rounded=0;orthogonalLoop=1;jettySize=auto;html=1;exitX=1;exitY=0.75;exitDx=0;exitDy=0;" parent="1" source="njXrvPDKqDDFjosRoKol-24" edge="1">
          <mxGeometry relative="1" as="geometry">
            <mxPoint x="830" y="619" as="targetPoint" />
          </mxGeometry>
        </mxCell>
        <mxCell id="njXrvPDKqDDFjosRoKol-24" value="" style="rounded=0;whiteSpace=wrap;html=1;" parent="1" vertex="1">
          <mxGeometry x="610" y="550" width="130" height="92.5" as="geometry" />
        </mxCell>
        <mxCell id="njXrvPDKqDDFjosRoKol-25" value="&lt;b&gt;&lt;font style=&quot;font-size: 21px;&quot;&gt;Serializer&lt;/font&gt;&lt;/b&gt;" style="text;strokeColor=none;align=center;fillColor=none;html=1;verticalAlign=middle;whiteSpace=wrap;rounded=0;" parent="1" vertex="1">
          <mxGeometry x="645" y="581.25" width="60" height="30" as="geometry" />
        </mxCell>
        <mxCell id="njXrvPDKqDDFjosRoKol-35" style="edgeStyle=orthogonalEdgeStyle;rounded=0;orthogonalLoop=1;jettySize=auto;html=1;" parent="1" source="njXrvPDKqDDFjosRoKol-26" target="njXrvPDKqDDFjosRoKol-33" edge="1">
          <mxGeometry relative="1" as="geometry" />
        </mxCell>
        <mxCell id="njXrvPDKqDDFjosRoKol-26" value="" style="rounded=0;whiteSpace=wrap;html=1;" parent="1" vertex="1">
          <mxGeometry x="310" y="820" width="130" height="92.5" as="geometry" />
        </mxCell>
        <mxCell id="njXrvPDKqDDFjosRoKol-27" value="&lt;b&gt;&lt;font style=&quot;font-size: 21px;&quot;&gt;PLL&lt;/font&gt;&lt;/b&gt;" style="text;strokeColor=none;align=center;fillColor=none;html=1;verticalAlign=middle;whiteSpace=wrap;rounded=0;" parent="1" vertex="1">
          <mxGeometry x="340" y="851.25" width="60" height="30" as="geometry" />
        </mxCell>
        <mxCell id="njXrvPDKqDDFjosRoKol-28" value="" style="endArrow=classic;html=1;rounded=0;entryX=0.5;entryY=1;entryDx=0;entryDy=0;" parent="1" target="njXrvPDKqDDFjosRoKol-26" edge="1">
          <mxGeometry width="50" height="50" relative="1" as="geometry">
            <mxPoint x="375" y="1001" as="sourcePoint" />
            <mxPoint x="459" y="1000" as="targetPoint" />
          </mxGeometry>
        </mxCell>
        <mxCell id="njXrvPDKqDDFjosRoKol-29" value="&lt;b&gt;&lt;font style=&quot;font-size: 21px;&quot;&gt;Ref_Clk&lt;/font&gt;&lt;/b&gt;" style="text;strokeColor=none;align=center;fillColor=none;html=1;verticalAlign=middle;whiteSpace=wrap;rounded=0;" parent="1" vertex="1">
          <mxGeometry x="370" y="940" width="60" height="30" as="geometry" />
        </mxCell>
        <mxCell id="njXrvPDKqDDFjosRoKol-39" style="edgeStyle=orthogonalEdgeStyle;rounded=0;orthogonalLoop=1;jettySize=auto;html=1;strokeWidth=6;" parent="1" source="njXrvPDKqDDFjosRoKol-31" target="njXrvPDKqDDFjosRoKol-21" edge="1">
          <mxGeometry relative="1" as="geometry" />
        </mxCell>
        <mxCell id="njXrvPDKqDDFjosRoKol-31" value="" style="rounded=0;whiteSpace=wrap;html=1;" parent="1" vertex="1">
          <mxGeometry x="349" y="720" width="130" height="92.5" as="geometry" />
        </mxCell>
        <mxCell id="njXrvPDKqDDFjosRoKol-32" value="&lt;b&gt;&lt;font style=&quot;font-size: 21px;&quot;&gt;8b/10b&lt;/font&gt;&lt;/b&gt;" style="text;strokeColor=none;align=center;fillColor=none;html=1;verticalAlign=middle;whiteSpace=wrap;rounded=0;" parent="1" vertex="1">
          <mxGeometry x="384" y="751.25" width="60" height="30" as="geometry" />
        </mxCell>
        <mxCell id="njXrvPDKqDDFjosRoKol-38" style="edgeStyle=orthogonalEdgeStyle;rounded=0;orthogonalLoop=1;jettySize=auto;html=1;entryX=0;entryY=0.5;entryDx=0;entryDy=0;strokeWidth=4;" parent="1" source="njXrvPDKqDDFjosRoKol-33" target="njXrvPDKqDDFjosRoKol-31" edge="1">
          <mxGeometry relative="1" as="geometry" />
        </mxCell>
        <mxCell id="njXrvPDKqDDFjosRoKol-33" value="" style="rounded=0;whiteSpace=wrap;html=1;" parent="1" vertex="1">
          <mxGeometry x="95" y="720" width="130" height="92.5" as="geometry" />
        </mxCell>
        <mxCell id="njXrvPDKqDDFjosRoKol-34" value="&lt;b&gt;&lt;font style=&quot;font-size: 21px;&quot;&gt;Data_Reg&lt;/font&gt;&lt;/b&gt;" style="text;strokeColor=none;align=center;fillColor=none;html=1;verticalAlign=middle;whiteSpace=wrap;rounded=0;" parent="1" vertex="1">
          <mxGeometry x="125" y="751.25" width="60" height="30" as="geometry" />
        </mxCell>
        <mxCell id="njXrvPDKqDDFjosRoKol-37" value="&lt;b&gt;&lt;font color=&quot;#ffffff&quot; style=&quot;font-size: 21px;&quot;&gt;Pclk&lt;/font&gt;&lt;/b&gt;" style="text;strokeColor=none;align=center;fillColor=none;html=1;verticalAlign=middle;whiteSpace=wrap;rounded=0;" parent="1" vertex="1">
          <mxGeometry x="210" y="830" width="60" height="30" as="geometry" />
        </mxCell>
        <mxCell id="njXrvPDKqDDFjosRoKol-40" value="&lt;b&gt;&lt;font color=&quot;#ffffff&quot; style=&quot;font-size: 21px;&quot;&gt;8/16/32/..&lt;/font&gt;&lt;/b&gt;" style="text;strokeColor=none;align=center;fillColor=none;html=1;verticalAlign=middle;whiteSpace=wrap;rounded=0;" parent="1" vertex="1">
          <mxGeometry x="250" y="730" width="60" height="30" as="geometry" />
        </mxCell>
        <mxCell id="njXrvPDKqDDFjosRoKol-41" value="&lt;b&gt;&lt;font color=&quot;#ffffff&quot; style=&quot;font-size: 21px;&quot;&gt;10+&lt;/font&gt;&lt;/b&gt;" style="text;strokeColor=none;align=center;fillColor=none;html=1;verticalAlign=middle;whiteSpace=wrap;rounded=0;" parent="1" vertex="1">
          <mxGeometry x="510" y="730" width="60" height="30" as="geometry" />
        </mxCell>
        <mxCell id="njXrvPDKqDDFjosRoKol-42" value="&lt;b&gt;&lt;font color=&quot;#ffffff&quot; style=&quot;font-size: 21px;&quot;&gt;10 +&lt;br&gt;&lt;/font&gt;&lt;/b&gt;" style="text;strokeColor=none;align=center;fillColor=none;html=1;verticalAlign=middle;whiteSpace=wrap;rounded=0;" parent="1" vertex="1">
          <mxGeometry x="630" y="677.5" width="60" height="30" as="geometry" />
        </mxCell>
        <mxCell id="njXrvPDKqDDFjosRoKol-44" value="&lt;b&gt;&lt;font style=&quot;font-size: 21px;&quot;&gt;TX+&lt;/font&gt;&lt;/b&gt;" style="text;strokeColor=none;align=center;fillColor=none;html=1;verticalAlign=middle;whiteSpace=wrap;rounded=0;" parent="1" vertex="1">
          <mxGeometry x="790" y="560" width="60" height="30" as="geometry" />
        </mxCell>
        <mxCell id="njXrvPDKqDDFjosRoKol-46" value="&lt;b&gt;&lt;font style=&quot;font-size: 21px;&quot;&gt;TX-&lt;/font&gt;&lt;/b&gt;" style="text;strokeColor=none;align=center;fillColor=none;html=1;verticalAlign=middle;whiteSpace=wrap;rounded=0;" parent="1" vertex="1">
          <mxGeometry x="777" y="620" width="60" height="30" as="geometry" />
        </mxCell>
        <mxCell id="njXrvPDKqDDFjosRoKol-48" style="edgeStyle=orthogonalEdgeStyle;rounded=0;orthogonalLoop=1;jettySize=auto;html=1;strokeWidth=4;endArrow=none;endFill=0;" parent="1" edge="1">
          <mxGeometry relative="1" as="geometry">
            <mxPoint x="-160" y="670" as="sourcePoint" />
            <mxPoint x="60" y="770" as="targetPoint" />
            <Array as="points">
              <mxPoint x="60" y="670" />
              <mxPoint x="60" y="741" />
            </Array>
          </mxGeometry>
        </mxCell>
        <mxCell id="njXrvPDKqDDFjosRoKol-49" value="&lt;b&gt;&lt;font style=&quot;font-size: 21px;&quot;&gt;8/16/32/..&lt;/font&gt;&lt;/b&gt;" style="text;strokeColor=none;align=center;fillColor=none;html=1;verticalAlign=middle;whiteSpace=wrap;rounded=0;" parent="1" vertex="1">
          <mxGeometry x="-125" y="632.75" width="60" height="30" as="geometry" />
        </mxCell>
        <mxCell id="njXrvPDKqDDFjosRoKol-54" value="" style="edgeStyle=none;orthogonalLoop=1;jettySize=auto;html=1;rounded=0;strokeWidth=5;" parent="1" edge="1">
          <mxGeometry width="80" relative="1" as="geometry">
            <mxPoint x="60" y="770" as="sourcePoint" />
            <mxPoint x="100" y="770.25" as="targetPoint" />
            <Array as="points" />
          </mxGeometry>
        </mxCell>
        <mxCell id="njXrvPDKqDDFjosRoKol-55" value="" style="edgeStyle=none;orthogonalLoop=1;jettySize=auto;html=1;rounded=0;endArrow=none;endFill=0;strokeWidth=4;" parent="1" edge="1">
          <mxGeometry width="80" relative="1" as="geometry">
            <mxPoint x="60" y="670" as="sourcePoint" />
            <mxPoint x="60" y="600" as="targetPoint" />
            <Array as="points" />
          </mxGeometry>
        </mxCell>
        <mxCell id="njXrvPDKqDDFjosRoKol-56" value="" style="edgeStyle=none;orthogonalLoop=1;jettySize=auto;html=1;rounded=0;strokeWidth=5;" parent="1" edge="1">
          <mxGeometry width="80" relative="1" as="geometry">
            <mxPoint x="60" y="603.75" as="sourcePoint" />
            <mxPoint x="100" y="604" as="targetPoint" />
            <Array as="points" />
          </mxGeometry>
        </mxCell>
        <mxCell id="njXrvPDKqDDFjosRoKol-57" style="edgeStyle=orthogonalEdgeStyle;rounded=0;orthogonalLoop=1;jettySize=auto;html=1;entryX=0;entryY=0.5;entryDx=0;entryDy=0;strokeWidth=3;" parent="1" edge="1">
          <mxGeometry relative="1" as="geometry">
            <mxPoint x="-29" y="550" as="sourcePoint" />
            <mxPoint x="95" y="550" as="targetPoint" />
          </mxGeometry>
        </mxCell>
        <mxCell id="njXrvPDKqDDFjosRoKol-58" value="&lt;b&gt;&lt;font style=&quot;font-size: 21px;&quot;&gt;TX_Data&lt;/font&gt;&lt;/b&gt;" style="text;strokeColor=none;align=center;fillColor=none;html=1;verticalAlign=middle;whiteSpace=wrap;rounded=0;" parent="1" vertex="1">
          <mxGeometry x="-100" y="677.5" width="60" height="30" as="geometry" />
        </mxCell>
        <mxCell id="njXrvPDKqDDFjosRoKol-59" value="&lt;b&gt;&lt;font style=&quot;font-size: 21px;&quot;&gt;TX_Data_K&lt;/font&gt;&lt;/b&gt;" style="text;strokeColor=none;align=center;fillColor=none;html=1;verticalAlign=middle;whiteSpace=wrap;rounded=0;" parent="1" vertex="1">
          <mxGeometry x="-10" y="510" width="60" height="30" as="geometry" />
        </mxCell>
        <mxCell id="njXrvPDKqDDFjosRoKol-60" value="" style="edgeStyle=none;orthogonalLoop=1;jettySize=auto;html=1;rounded=0;entryX=0.25;entryY=0;entryDx=0;entryDy=0;" parent="1" target="njXrvPDKqDDFjosRoKol-31" edge="1">
          <mxGeometry width="80" relative="1" as="geometry">
            <mxPoint x="315" y="647.12" as="sourcePoint" />
            <mxPoint x="395" y="647.12" as="targetPoint" />
            <Array as="points">
              <mxPoint x="382" y="647" />
            </Array>
          </mxGeometry>
        </mxCell>
        <mxCell id="njXrvPDKqDDFjosRoKol-61" value="" style="edgeStyle=none;orthogonalLoop=1;jettySize=auto;html=1;rounded=0;" parent="1" edge="1">
          <mxGeometry width="80" relative="1" as="geometry">
            <mxPoint x="570" y="678.62" as="sourcePoint" />
            <mxPoint x="637" y="720" as="targetPoint" />
            <Array as="points">
              <mxPoint x="637" y="678.5" />
            </Array>
          </mxGeometry>
        </mxCell>
        <mxCell id="njXrvPDKqDDFjosRoKol-62" value="" style="edgeStyle=none;orthogonalLoop=1;jettySize=auto;html=1;rounded=0;endArrow=none;endFill=0;" parent="1" edge="1">
          <mxGeometry width="80" relative="1" as="geometry">
            <mxPoint x="570" y="600.25" as="sourcePoint" />
            <mxPoint x="570" y="677.5" as="targetPoint" />
            <Array as="points" />
          </mxGeometry>
        </mxCell>
        <mxCell id="njXrvPDKqDDFjosRoKol-65" value="&lt;b&gt;&lt;font color=&quot;#ffffff&quot; style=&quot;font-size: 21px;&quot;&gt;En_enc&lt;/font&gt;&lt;/b&gt;" style="text;strokeColor=none;align=center;fillColor=none;html=1;verticalAlign=middle;whiteSpace=wrap;rounded=0;" parent="1" vertex="1">
          <mxGeometry x="324" y="619.38" width="60" height="30" as="geometry" />
        </mxCell>
        <mxCell id="njXrvPDKqDDFjosRoKol-66" value="&lt;b&gt;&lt;font color=&quot;#ffffff&quot; style=&quot;font-size: 21px;&quot;&gt;En_RD&lt;/font&gt;&lt;/b&gt;" style="text;strokeColor=none;align=center;fillColor=none;html=1;verticalAlign=middle;whiteSpace=wrap;rounded=0;" parent="1" vertex="1">
          <mxGeometry x="345" y="570" width="60" height="30" as="geometry" />
        </mxCell>
        <mxCell id="njXrvPDKqDDFjosRoKol-68" style="edgeStyle=none;rounded=0;orthogonalLoop=1;jettySize=auto;html=1;exitX=1;exitY=0.25;exitDx=0;exitDy=0;entryX=0.013;entryY=0.157;entryDx=0;entryDy=0;entryPerimeter=0;" parent="1" source="njXrvPDKqDDFjosRoKol-19" target="njXrvPDKqDDFjosRoKol-24" edge="1">
          <mxGeometry relative="1" as="geometry" />
        </mxCell>
        <mxCell id="njXrvPDKqDDFjosRoKol-69" value="&lt;b&gt;&lt;font color=&quot;#ffffff&quot; style=&quot;font-size: 21px;&quot;&gt;En_ser&lt;/font&gt;&lt;/b&gt;" style="text;strokeColor=none;align=center;fillColor=none;html=1;verticalAlign=middle;whiteSpace=wrap;rounded=0;" parent="1" vertex="1">
          <mxGeometry x="370" y="530" width="60" height="30" as="geometry" />
        </mxCell>
        <mxCell id="ny57wzhgL6la1Yudt9Ik-1" style="edgeStyle=orthogonalEdgeStyle;rounded=0;orthogonalLoop=1;jettySize=auto;html=1;entryX=0.797;entryY=0.998;entryDx=0;entryDy=0;entryPerimeter=0;dashed=1;strokeWidth=2;" parent="1" target="njXrvPDKqDDFjosRoKol-19" edge="1">
          <mxGeometry relative="1" as="geometry">
            <mxPoint x="320" y="876" as="sourcePoint" />
            <mxPoint x="170" y="823" as="targetPoint" />
            <Array as="points">
              <mxPoint x="270" y="876" />
            </Array>
          </mxGeometry>
        </mxCell>
        <mxCell id="ny57wzhgL6la1Yudt9Ik-2" value="&lt;b&gt;&lt;font color=&quot;#ffffff&quot; style=&quot;font-size: 21px;&quot;&gt;Ref_Clk&lt;/font&gt;&lt;/b&gt;" style="text;strokeColor=none;align=center;fillColor=none;html=1;verticalAlign=middle;whiteSpace=wrap;rounded=0;" parent="1" vertex="1">
          <mxGeometry x="240" y="882.5" width="60" height="30" as="geometry" />
        </mxCell>
        <mxCell id="ny57wzhgL6la1Yudt9Ik-3" style="edgeStyle=orthogonalEdgeStyle;rounded=0;orthogonalLoop=1;jettySize=auto;html=1;dashed=1;strokeWidth=2;exitX=1;exitY=0.5;exitDx=0;exitDy=0;" parent="1" source="njXrvPDKqDDFjosRoKol-26" target="njXrvPDKqDDFjosRoKol-24" edge="1">
          <mxGeometry relative="1" as="geometry">
            <mxPoint x="570" y="820" as="sourcePoint" />
            <mxPoint x="520" y="632" as="targetPoint" />
            <Array as="points">
              <mxPoint x="520" y="866" />
              <mxPoint x="520" y="596" />
            </Array>
          </mxGeometry>
        </mxCell>
        <mxCell id="ny57wzhgL6la1Yudt9Ik-4" value="&lt;b&gt;&lt;font color=&quot;#ffffff&quot; style=&quot;font-size: 21px;&quot;&gt;Ref_Clk&lt;/font&gt;&lt;/b&gt;" style="text;strokeColor=none;align=center;fillColor=none;html=1;verticalAlign=middle;whiteSpace=wrap;rounded=0;" parent="1" vertex="1">
          <mxGeometry x="460" y="870" width="60" height="30" as="geometry" />
        </mxCell>
        <mxCell id="ez3Ab5l1970i18GDpwO6-1" style="edgeStyle=orthogonalEdgeStyle;rounded=0;orthogonalLoop=1;jettySize=auto;html=1;entryX=0.5;entryY=1;entryDx=0;entryDy=0;strokeWidth=6;" edge="1" parent="1">
          <mxGeometry relative="1" as="geometry">
            <mxPoint x="725" y="719.5" as="sourcePoint" />
            <mxPoint x="725" y="642.5" as="targetPoint" />
          </mxGeometry>
        </mxCell>
        <mxCell id="ez3Ab5l1970i18GDpwO6-2" value="&lt;b&gt;&lt;font color=&quot;#ffffff&quot; style=&quot;font-size: 21px;&quot;&gt;10 -&lt;br&gt;&lt;/font&gt;&lt;/b&gt;" style="text;strokeColor=none;align=center;fillColor=none;html=1;verticalAlign=middle;whiteSpace=wrap;rounded=0;" vertex="1" parent="1">
          <mxGeometry x="680" y="677" width="60" height="30" as="geometry" />
        </mxCell>
        <mxCell id="ez3Ab5l1970i18GDpwO6-4" style="edgeStyle=orthogonalEdgeStyle;rounded=0;orthogonalLoop=1;jettySize=auto;html=1;strokeWidth=6;" edge="1" parent="1">
          <mxGeometry relative="1" as="geometry">
            <mxPoint x="479" y="806" as="sourcePoint" />
            <mxPoint x="610" y="806" as="targetPoint" />
          </mxGeometry>
        </mxCell>
        <mxCell id="ez3Ab5l1970i18GDpwO6-5" value="&lt;b&gt;&lt;font color=&quot;#ffffff&quot; style=&quot;font-size: 21px;&quot;&gt;10-&lt;/font&gt;&lt;/b&gt;" style="text;strokeColor=none;align=center;fillColor=none;html=1;verticalAlign=middle;whiteSpace=wrap;rounded=0;" vertex="1" parent="1">
          <mxGeometry x="510" y="770" width="60" height="30" as="geometry" />
        </mxCell>
        <mxCell id="ez3Ab5l1970i18GDpwO6-6" value="" style="edgeStyle=none;orthogonalLoop=1;jettySize=auto;html=1;rounded=0;entryX=1;entryY=1;entryDx=0;entryDy=0;exitX=0;exitY=0.75;exitDx=0;exitDy=0;" edge="1" parent="1" source="njXrvPDKqDDFjosRoKol-3" target="njXrvPDKqDDFjosRoKol-2">
          <mxGeometry width="80" relative="1" as="geometry">
            <mxPoint x="160" y="310" as="sourcePoint" />
            <mxPoint x="240" y="310" as="targetPoint" />
            <Array as="points" />
          </mxGeometry>
        </mxCell>
      </root>
    </mxGraphModel>
  </diagram>
</mxfile>
